Patient4_TMGait_0pt3_02_left_29_GRF.mot
version=1
nRows=51
nColumns=19
inDegrees=no
endheader
time	F1x	F1y	F1z	M1x	M1y	M1z	F2x	F2y	F2z	M2x	M2y	M2z	EC1x	EC1y	EC1z	EC2x	EC2y	EC2z
56.73	-5.1615	4.5542	-1.5625	-0.52324	-0.49539	6.007	-12.7552	724.0962	-33.5794	285.0202	44.0076	723.8765	-0.0592	0.0182	-0.0073	-0.0462	0.0165	0.9585
56.7496	-3.5894	3.0614	-1.0423	-0.33029	-0.41601	4.0809	-15.58	744.1901	-34.3984	293.011	45.2758	742.9146	-0.0592	0.0182	-0.0073	-0.0462	0.0165	0.9585
56.7693	-2.2431	1.7943	-0.59556	-0.17116	-0.34474	2.4523	-18.4169	770.0362	-35.3156	303.1725	46.6692	767.1769	-0.0592	0.0182	-0.0073	-0.0462	0.0165	0.9585
56.7889	-1.2048	0.83201	-0.25582	-0.052837	-0.28451	1.2177	-20.9915	800.0749	-36.2774	314.8571	48.0445	795.092	-0.0592	0.0182	-0.0073	-0.0462	0.0165	0.9585
56.8086	-0.48043	0.17258	-0.023917	0.026071	-0.23913	0.36771	-23.0787	831.4769	-37.2202	326.9324	49.2367	823.884	-0.0592	0.0182	-0.0073	-0.0462	0.0165	0.9585
56.8282	-0.033618	-0.22956	0.11797	0.071919	-0.2128	-0.15266	-24.5215	860.6696	-38.0596	337.9874	50.0744	850.0836	-0.0592	0.0182	-0.0073	-0.0462	0.0165	0.9585
56.8479	0.19234	-0.44439	0.19697	0.095878	-0.21028	-0.42469	-25.1913	884.0084	-38.7051	346.5998	50.3917	870.1582	-0.0592	0.0182	-0.0073	-0.0462	0.0165	0.9585
56.8675	0.25978	-0.54907	0.24107	0.11143	-0.23511	-0.54092	-24.97	898.4313	-39.0748	351.5956	50.0452	881.1563	-0.0592	0.0182	-0.0073	-0.0462	0.0165	0.9585
56.8871	0.21894	-0.62045	0.27287	0.13267	-0.28829	-0.59275	-23.799	902.0134	-39.103	352.265	48.945	881.2646	-0.0592	0.0182	-0.0073	-0.0462	0.0165	0.9585
56.9068	0.11044	-0.73104	0.30491	0.1755	-0.36478	-0.66907	-21.6992	894.3271	-38.7376	348.5009	47.0584	870.1559	-0.0592	0.0182	-0.0073	-0.0462	0.0165	0.9585
56.9264	-0.030574	-0.94495	0.34046	0.25911	-0.456	-0.85507	-18.7518	876.4893	-37.9525	340.8038	44.4115	849.0115	-0.0592	0.0182	-0.0073	-0.0462	0.0165	0.9585
56.9461	-0.17585	-1.3169	0.37693	0.40334	-0.54967	-1.2227	-15.0894	850.8862	-36.7715	330.1586	41.1048	820.2396	-0.0592	0.0182	-0.0073	-0.0462	0.0165	0.9585
56.9657	-0.2998	-1.883	0.40678	0.62011	-0.62628	-1.8121	-10.8811	820.6858	-35.286	317.8317	37.3182	786.9856	-0.0592	0.0182	-0.0073	-0.0462	0.0165	0.9585
56.9854	-0.37169	-2.6456	0.41711	0.90786	-0.65893	-2.6242	-6.3119	789.274	-33.661	305.1484	33.3038	752.5756	-0.0592	0.0182	-0.0073	-0.0462	0.0165	0.9585
57.005	-0.35334	-3.5486	0.38996	1.2422	-0.61475	-3.5976	-1.5783	759.7616	-32.1014	293.3068	29.3512	720.0423	-0.0592	0.0182	-0.0073	-0.0462	0.0165	0.9585
57.0246	-0.19248	-4.4506	0.30003	1.5664	-0.44903	-4.5807	3.1254	734.6322	-30.8039	283.2536	25.731	691.7988	-0.0592	0.0182	-0.0073	-0.0462	0.0165	0.9585
57.0443	0.17517	-5.0878	0.11637	1.7809	-0.10455	-5.2997	7.63	715.5159	-29.9196	275.602	22.6512	669.4194	-0.0592	0.0182	-0.0073	-0.0462	0.0165	0.9585
57.0639	0.81843	-5.0462	-0.19398	1.732	0.48077	-5.3222	11.8032	703.0955	-29.5353	270.5976	20.2392	653.5569	-0.0592	0.0182	-0.0073	-0.0462	0.0165	0.9585
57.0836	1.7986	-3.7414	-0.6605	1.204	1.3613	-4.037	15.5532	697.1443	-29.677	268.1342	18.5446	643.9946	-0.0592	0.0182	-0.0073	-0.0462	0.0165	0.9585
57.1032	3.1437	-0.42336	-1.2959	-0.077422	2.5595	-0.65943	18.8138	696.6553	-30.3244	267.8046	17.5589	639.7884	-0.0592	0.0182	-0.0073	-0.0462	0.0165	0.9585
57.1229	4.8104	5.7722	-2.0754	-2.4263	4.0291	5.7196	21.5256	700.0549	-31.4117	268.9835	17.2285	639.482	-0.0592	0.0182	-0.0073	-0.0462	0.0165	0.9585
57.1425	6.6323	15.6917	-2.9144	-6.1475	5.6136	16.0085	23.6238	705.4237	-32.822	270.9148	17.4593	641.3179	-0.0592	0.0182	-0.0073	-0.0462	0.0165	0.9585
57.1621	8.2623	29.9305	-3.6369	-11.4492	6.9916	30.8769	25.0706	710.7242	-34.3963	272.8029	18.1158	643.4343	-0.0592	0.0182	-0.0073	-0.0462	0.0165	0.9585
57.1818	9.1471	48.5317	-3.9558	-18.3273	7.6486	50.4352	25.8935	714.0058	-35.9563	273.8923	19.0262	644.0394	-0.0592	0.0182	-0.0073	-0.0462	0.0165	0.9585
57.2014	8.8142	70.9473	-3.5345	-26.5515	7.0459	74.1788	26.1869	713.5865	-37.3305	273.5376	20.0018	641.5796	-0.0592	0.0182	-0.0073	-0.0462	0.0165	0.9585
57.2211	7.2827	96.3814	-2.0807	-35.7963	4.8692	101.3131	26.0792	708.1915	-38.3767	271.2562	20.8707	634.8754	-0.0592	0.0182	-0.0073	-0.0462	0.0165	0.9585
57.2407	4.7954	123.8451	0.53527	-45.6803	1.0646	130.7812	25.6818	696.979	-38.9861	266.736	21.5002	623.1495	-0.0592	0.0182	-0.0073	-0.0462	0.0165	0.9585
57.2604	1.6909	152.1259	4.0479	-55.7762	-3.9469	161.2304	25.0757	679.5747	-39.0868	259.8464	21.8039	606.0574	-0.0592	0.0182	-0.0073	-0.0462	0.0165	0.9585
57.28	-1.6054	179.9364	7.8492	-65.6623	-9.3357	191.1735	24.3307	656.1694	-38.6608	250.6726	21.7432	583.7641	-0.0592	0.0182	-0.0073	-0.0462	0.0165	0.9585
57.2996	-4.7562	206.6464	11.421	-75.1537	-14.4099	219.8309	23.5154	627.5731	-37.7588	239.5323	21.3367	556.9815	-0.0592	0.0182	-0.0073	-0.0462	0.0165	0.9585
57.3193	-7.6092	232.5916	14.4134	-84.4012	-18.735	247.4955	22.698	595.0709	-36.4753	226.922	20.6387	526.8343	-0.0592	0.0182	-0.0073	-0.0462	0.0165	0.9585
57.3389	-10.0869	258.4802	16.7174	-93.669	-22.1701	274.8922	21.9153	560.1477	-34.9011	213.4158	19.7091	494.6285	-0.0592	0.0182	-0.0073	-0.0462	0.0165	0.9585
57.3586	-12.1315	284.7316	18.4318	-103.0946	-24.8054	302.4772	21.159	524.2833	-33.1135	199.5856	18.6123	461.669	-0.0592	0.0182	-0.0073	-0.0462	0.0165	0.9585
57.3782	-13.7347	311.2315	19.7609	-112.6041	-26.8617	330.1774	20.4037	488.7982	-31.199	185.9393	17.4226	429.1307	-0.0592	0.0182	-0.0073	-0.0462	0.0165	0.9585
57.3979	-14.9453	337.4726	20.8994	-121.9756	-28.566	357.5237	19.6398	454.7398	-29.2487	172.8753	16.2093	397.9509	-0.0592	0.0182	-0.0073	-0.0462	0.0165	0.9585
57.4175	-15.8553	362.8715	21.9619	-130.9656	-30.0738	383.9669	18.895	422.7864	-27.3352	160.6486	15.0134	368.7404	-0.0592	0.0182	-0.0073	-0.0462	0.0165	0.9585
57.4371	-16.5667	387.0407	22.9876	-139.4154	-31.4617	409.1345	18.2315	393.1883	-25.4882	149.3508	13.831	341.7299	-0.0592	0.0182	-0.0073	-0.0462	0.0165	0.9585
57.4568	-17.1547	409.9093	23.9833	-147.2963	-32.7583	432.9356	17.7112	365.7855	-23.6969	138.9177	12.6302	316.7926	-0.0592	0.0182	-0.0073	-0.0462	0.0165	0.9585
57.4764	-17.6436	431.6855	24.9764	-154.69	-33.9896	455.5212	17.3615	340.1083	-21.9392	129.1689	11.3853	293.5291	-0.0592	0.0182	-0.0073	-0.0462	0.0165	0.9585
57.4961	-18.0115	452.7548	26.025	-161.7501	-35.1943	477.198	17.1462	315.5323	-20.205	119.8618	10.1044	271.406	-0.0592	0.0182	-0.0073	-0.0462	0.0165	0.9585
57.5157	-18.2137	473.6118	27.1983	-168.6718	-36.4149	498.3763	16.953	291.4179	-18.5072	110.7451	8.8432	249.8869	-0.0592	0.0182	-0.0073	-0.0462	0.0165	0.9585
57.5354	-18.2133	494.8054	28.5644	-175.6635	-37.6972	519.5314	16.6183	267.1731	-16.8769	101.5844	7.6918	228.4775	-0.0592	0.0182	-0.0073	-0.0462	0.0165	0.9585
57.555	-18.0008	516.8563	30.1963	-182.914	-39.1037	541.1345	15.9638	242.2646	-15.3399	92.1673	6.7385	206.7213	-0.0592	0.0182	-0.0073	-0.0462	0.0165	0.9585
57.5746	-17.6112	540.1941	32.1681	-190.5716	-40.7172	563.5989	14.8342	216.318	-13.902	82.3433	6.0456	184.2868	-0.0592	0.0182	-0.0073	-0.0462	0.0165	0.9585
57.5943	-17.1338	565.1363	34.5319	-198.7445	-42.6199	587.2559	13.1478	189.2726	-12.5513	72.0836	5.6302	161.1015	-0.0592	0.0182	-0.0073	-0.0462	0.0165	0.9585
57.6139	-16.6745	591.8351	37.2918	-207.4846	-44.8558	612.2832	10.9392	161.4706	-11.2642	61.5175	5.4537	137.4187	-0.0592	0.0182	-0.0073	-0.0462	0.0165	0.9585
57.6336	-16.3077	620.155	40.3783	-216.7521	-47.3914	638.5665	8.3636	133.6519	-10.0093	50.9294	5.4263	113.8177	-0.0592	0.0182	-0.0073	-0.0462	0.0165	0.9585
57.6532	-16.0461	649.5724	43.6364	-226.3865	-50.0902	665.5972	5.6646	106.8224	-8.7551	40.7069	5.4268	91.1009	-0.0592	0.0182	-0.0073	-0.0462	0.0165	0.9585
57.6729	-15.8387	679.2368	46.8514	-236.1247	-52.7322	692.5372	3.11	82.017	-7.4797	31.2504	5.3375	70.1084	-0.0592	0.0182	-0.0073	-0.0462	0.0165	0.9585
57.6925	-15.6092	708.1115	49.8024	-245.639	-55.0807	718.3724	0.92619	60.071	-6.1818	22.8844	5.074	51.5289	-0.0592	0.0182	-0.0073	-0.0462	0.0165	0.9585
57.7121	-15.2732	735.112	52.3141	-254.5713	-56.937	742.0557	-0.73409	41.515	-4.8843	15.8139	4.6003	35.8048	-0.0592	0.0182	-0.0073	-0.0462	0.0165	0.9585
